HIERARCHY
ROOT Hips
{
	OFFSET 0.000000 0.000000 0.000000 
	CHANNELS 6 Xposition Yposition Zposition Zrotation Yrotation Xrotation
	JOINT LeftUpLeg
	{
		OFFSET 1.363060 -1.794630 0.839290 
		CHANNELS 3 Zrotation Yrotation Xrotation
		JOINT LeftLeg
		{
			OFFSET 2.448110 -6.726130 0.000000 
			CHANNELS 3 Zrotation Yrotation Xrotation
			JOINT LeftFoot
			{
				OFFSET 2.562200 -7.039590 0.000000 
				CHANNELS 3 Zrotation Yrotation Xrotation
				JOINT LeftToeBase
				{
					OFFSET 0.157640 -0.433110 2.322550 
					CHANNELS 3 Zrotation Yrotation Xrotation
					End Site
					{
						OFFSET 0.000000 0.000000 0.000000 
					}
				}
			}
		}
	}
	JOINT RightUpLeg
	{
		OFFSET -1.305520 -1.794630 0.839290 
		CHANNELS 3 Zrotation Yrotation Xrotation
		JOINT RightLeg
		{
			OFFSET -2.542530 -6.985550 0.000000 
			CHANNELS 3 Zrotation Yrotation Xrotation
			JOINT RightFoot
			{
				OFFSET -2.568260 -7.056230 0.000000 
				CHANNELS 3 Zrotation Yrotation Xrotation
				JOINT RightToeBase
				{
					OFFSET -0.164730 -0.452590 2.363150 
					CHANNELS 3 Zrotation Yrotation Xrotation
					End Site
					{
						OFFSET 0.000000 0.000000 0.000000 
					}
				}
			}
		}
	}
	JOINT Spine
	{
		OFFSET 0.028270 2.035590 -0.193380 
		CHANNELS 3 Zrotation Yrotation Xrotation
		JOINT Spine1
		{
			OFFSET 0.056720 2.048850 -0.042750 
			CHANNELS 3 Zrotation Yrotation Xrotation
			JOINT Neck1
			{
				OFFSET -0.054170 1.746240 0.172020 
				CHANNELS 3 Zrotation Yrotation Xrotation
				JOINT Head
				{
					OFFSET 0.104070 1.761360 -0.123970 
					CHANNELS 3 Zrotation Yrotation Xrotation
					End Site
					{
						OFFSET 0.000000 0.000000 0.000000 
					}
				}
			}
			JOINT LeftArm
			{
				OFFSET 3.362410 1.200890 -0.311210 
				CHANNELS 3 Zrotation Yrotation Xrotation
				JOINT LeftForeArm
				{
					OFFSET 4.983000 -0.000000 -0.000000 
					CHANNELS 3 Zrotation Yrotation Xrotation
					JOINT LeftHand
					{
						OFFSET 3.483560 -0.000000 -0.000000 
						CHANNELS 3 Zrotation Yrotation Xrotation
						JOINT LeftHandIndex1
						{
							OFFSET 0.715260 -0.000000 -0.000000 
							CHANNELS 3 Zrotation Yrotation Xrotation
							End Site
							{
								OFFSET 0.000000 0.000000 0.000000 
							}
						}
					}
				}
			}
			JOINT RightArm
			{
				OFFSET -3.136600 1.374050 -0.404650 
				CHANNELS 3 Zrotation Yrotation Xrotation
				JOINT RightForeArm
				{
					OFFSET -5.241900 -0.000000 -0.000000 
					CHANNELS 3 Zrotation Yrotation Xrotation
					JOINT RightHand
					{
						OFFSET -3.444170 -0.000000 -0.000000 
						CHANNELS 3 Zrotation Yrotation Xrotation
						JOINT RightHandIndex1
						{
							OFFSET -0.622530 -0.000000 -0.000000 
							CHANNELS 3 Zrotation Yrotation Xrotation
							End Site
							{
								OFFSET 0.000000 0.000000 0.000000 
							}
						}
					}
				}
			}
		}
	}
}
MOTION
Frames: 12
Frame Time: 0.041667
1.040202 19.224317 -0.498869 -176.120690 24.765483 -169.065592 1.480019 -24.367575 -35.653818 -0.739714 7.821714 16.989579 3.464011 34.559236 34.365765 0.002900 -0.348500 -0.957600 20.240218 -0.671308 21.780912 -7.184549 -12.215156 50.928502 -2.332192 -18.815811 26.577885 -0.347900 3.789700 -10.485800 -1.795482 14.797904 -3.212571 -4.024525 7.684597 10.287879 7.217508 -7.835209 18.782827 0.322100 -3.979700 30.704500 -46.219041 43.256985 65.950022 97.429485 -62.698092 -62.191357 1.167104 -0.173042 12.842015 -7.125000 0.000000 0.000000 72.234192 -2.453464 49.417294 -87.800594 61.454258 -46.424356 0.341076 -0.504474 10.065364 7.125000 0.000000 0.000000 
1.025976 19.125163 -0.909281 -176.108491 25.100450 -169.330685 0.658516 -23.902651 -34.575606 -0.762573 7.627576 16.630583 3.482670 35.652173 35.118329 0.002500 -0.319900 -0.879000 19.643142 -0.415838 21.311637 -7.835358 -12.719384 53.623592 -2.246681 -19.071246 25.684179 -0.359500 3.851600 -10.659500 -1.745194 14.741265 -3.212360 -3.871132 7.635092 10.305511 7.228449 -7.745294 18.917385 0.277100 -3.976900 30.864200 -46.119433 43.943862 66.051046 98.003800 -62.717340 -62.654389 1.174749 -0.182038 12.793051 -7.125000 0.000000 0.000000 72.981624 -2.797361 48.935600 -85.885202 61.750630 -44.858274 0.357941 -0.534502 10.261127 7.125000 0.000000 0.000000 
1.012071 19.013175 -1.318623 -176.125654 25.338530 -169.608616 -0.740754 -22.520068 -33.831297 -0.747973 7.564938 16.677453 3.825563 35.072635 36.356106 0.003900 -0.400800 -1.101200 18.998312 -0.257957 20.822133 -8.489378 -13.186957 56.270175 -2.140653 -19.486662 24.678980 -0.363100 3.871000 -10.713900 -1.691402 14.617373 -3.216710 -3.727526 7.551684 10.306785 7.247232 -7.655264 19.045464 0.239800 -3.978000 31.049800 -46.123254 44.601256 66.053442 98.480938 -62.738803 -63.033398 1.184447 -0.192456 12.811922 -7.125000 0.000000 0.000000 73.774434 -3.205396 48.418990 -84.051545 61.993631 -43.402841 0.376864 -0.575154 10.405343 7.125000 0.000000 0.000000 
0.998166 18.887709 -1.725826 -176.175789 25.460355 -169.898603 -2.573703 -20.383516 -33.444015 -0.695628 7.642604 17.137708 4.459105 32.806866 38.049677 0.007900 -0.573200 -1.575200 18.316293 -0.205655 20.298576 -9.153993 -13.624169 58.888550 -2.014616 -19.986802 23.569822 -0.361300 3.861500 -10.687300 -1.636920 14.431369 -3.225440 -3.609887 7.439850 10.292538 7.266751 -7.573965 19.111647 0.190800 -3.977600 31.282800 -46.228734 45.196307 65.950506 98.827281 -62.763941 -63.300929 1.197253 -0.205161 12.925880 -7.125000 0.000000 0.000000 74.637817 -3.722769 47.829951 -82.399748 62.182932 -42.122602 0.397764 -0.617091 10.561250 7.125000 0.000000 0.000000 
0.983833 18.747054 -2.130247 -176.252221 25.472254 -170.199389 -4.587755 -17.897146 -33.361098 -0.600452 7.879268 18.023070 5.146680 29.470696 39.792281 0.014000 -0.762700 -2.096100 17.613415 -0.240857 19.743738 -9.837521 -14.034637 61.502218 -1.868123 -20.513587 22.352056 -0.359300 3.850800 -10.657300 -1.581007 14.181950 -3.237928 -3.511490 7.298255 10.260206 7.286727 -7.514341 19.215404 0.147600 -3.977800 31.397900 -46.445357 45.720346 65.745476 99.041152 -62.793990 -63.457083 1.209200 -0.217755 13.127990 -7.125000 0.000000 0.000000 75.547344 -4.365797 47.172798 -80.994870 62.326640 -41.053635 0.417403 -0.657381 10.776965 7.125000 0.000000 0.000000 
0.968858 18.589820 -2.530819 -176.341486 25.366892 -170.512253 -6.555484 -15.467538 -33.499042 -0.450394 8.292620 19.356073 5.751719 25.239807 41.316345 0.014000 -0.764500 -2.101100 16.917167 -0.363455 19.165253 -10.547546 -14.421009 64.129509 -1.704065 -20.973950 21.022234 -0.358700 3.847400 -10.647800 -1.526233 13.882866 -3.250853 -3.450185 7.136951 10.227438 7.304633 -7.478704 19.286157 0.101700 -3.975800 31.480800 -46.784847 46.106344 65.429354 99.081382 -62.827449 -63.468421 1.221339 -0.228432 13.387277 -7.125000 0.000000 0.000000 76.505452 -5.112653 46.416407 -79.835391 62.438169 -40.184780 0.438694 -0.700228 11.031283 7.125000 0.000000 0.000000 
0.952921 18.415152 -2.927432 -176.431872 25.160133 -170.846572 -8.346103 -13.352354 -33.765343 -0.222641 8.899684 21.174995 6.152412 20.120293 42.336449 0.005700 -0.486200 -1.335900 16.250491 -0.549034 18.582925 -11.288168 -14.781463 66.778781 -1.525927 -21.300174 19.569707 -0.365300 3.882300 -10.745700 -1.470282 13.540470 -3.262374 -3.409752 6.957449 10.190154 7.332172 -7.458596 19.327602 0.080400 -3.981600 31.517800 -47.260249 46.337914 65.017046 98.916031 -62.867304 -63.308740 1.230735 -0.233998 13.658312 -7.125000 0.000000 0.000000 77.491320 -5.978295 45.567280 -78.963566 62.527979 -39.539082 0.459991 -0.743412 11.304849 7.125000 0.000000 0.000000 
0.936342 18.223584 -3.319447 -176.490139 24.869311 -171.203841 -9.925287 -11.555438 -34.108106 0.121711 9.711022 23.505218 6.057153 14.629598 41.886053 0.014300 -0.772400 -2.122800 15.669571 -0.763634 18.012244 -12.059096 -15.115341 69.451562 -1.347466 -21.452513 18.055379 -0.378500 3.951400 -10.939900 -1.413020 13.173818 -3.267820 -3.393387 6.769136 10.170777 7.365175 -7.455112 19.334987 0.081600 -3.992600 31.511300 -47.874018 46.373729 64.511107 98.541026 -62.910679 -62.975633 1.236813 -0.232443 13.951990 -7.125000 0.000000 0.000000 78.502106 -6.941494 44.608190 -78.344963 62.607876 -39.085883 0.478114 -0.790334 11.612292 7.125000 0.000000 0.000000 
0.919763 18.019180 -3.706006 -176.513867 24.517766 -171.605714 -11.290671 -10.066071 -34.462655 0.607516 10.703050 26.339095 5.377866 10.068178 39.458723 0.033300 -1.178100 -3.239100 15.203142 -0.979428 17.475003 -12.855605 -15.418584 72.138603 -1.173045 -21.461940 16.496542 -0.386600 3.992800 -11.056300 -1.351301 12.786591 -3.265161 -3.382708 6.572269 10.156324 7.407359 -7.458521 19.315705 0.116500 -4.015200 31.475600 -48.654328 46.218710 63.913854 97.938727 -62.957567 -62.453032 1.239332 -0.221367 14.223778 -7.125000 0.000000 0.000000 79.508040 -7.971780 43.575390 -77.923366 62.681512 -38.781752 0.491350 -0.844339 11.878910 7.125000 0.000000 0.000000 
0.903612 17.807396 -4.086468 -176.523827 24.132284 -172.048900 -12.459715 -8.870601 -34.831636 1.236669 11.827008 29.638066 4.329734 7.144000 35.336828 0.090700 -1.942100 -5.345700 14.861125 -1.161953 16.941930 -13.673868 -15.690985 74.835160 -1.011800 -21.340855 14.950278 -0.393300 4.026800 -11.151900 -1.288369 12.391681 -3.253112 -3.378394 6.372997 10.145227 7.462022 -7.481454 19.284375 0.179700 -4.050700 31.406600 -49.624186 45.853656 63.203084 97.055738 -63.009722 -61.696710 1.238663 -0.200972 14.482907 -7.125000 0.000000 0.000000 80.534852 -9.041154 42.445673 -77.619959 62.755046 -38.567469 0.498642 -0.902759 12.168994 7.125000 0.000000 0.000000 
0.888316 17.594436 -4.458695 -176.559236 23.742232 -172.546374 -13.487862 -7.940039 -35.221850 1.996256 13.022090 33.311833 3.191395 6.446608 30.028166 0.185500 -2.774100 -7.650400 14.628466 -1.276512 16.391557 -14.510543 -15.931704 77.540495 -0.856214 -21.193210 13.389979 -0.394500 4.032700 -11.168700 -1.224462 11.992530 -3.233859 -3.372877 6.173278 10.112839 7.510546 -7.500892 19.231601 0.236900 -4.078300 31.311200 -50.843857 45.297821 62.325360 95.879696 -63.061203 -60.697175 1.232505 -0.172637 14.743054 -7.125000 0.000000 0.000000 81.590553 -10.110253 41.235492 -77.335435 62.825975 -38.371531 0.500725 -0.968239 12.445985 7.125000 0.000000 0.000000 
0.873983 17.385540 -4.821401 -176.637313 23.340786 -173.082348 -14.434047 -7.213833 -35.638394 2.865555 14.220059 37.207511 2.167795 7.337951 24.295998 0.295100 -3.493000 -9.654500 14.504421 -1.330277 15.763873 -15.366674 -16.145361 80.263090 -0.707776 -21.020326 11.819558 -0.399500 4.057900 -11.239500 -1.163737 11.588804 -3.205058 -3.378043 5.973215 10.074993 7.557150 -7.519691 19.160384 0.295900 -4.100400 31.178700 -52.356770 44.510295 61.228864 94.345693 -63.108063 -59.402777 1.220916 -0.136820 15.027667 -7.125000 0.000000 0.000000 82.727518 -11.118680 39.923335 -76.950189 62.899297 -38.108812 0.502399 -1.048252 12.679573 7.125000 0.000000 0.000000 
